<svg width="720" height="720" viewBox="0 0 720 720" fill="none" xmlns="http://www.w3.org/2000/svg">
<g clip-path="url(#clip0_810_8)">
<path d="M278.128 493.68C241.093 493.68 208.411 486.085 180.08 470.896C151.749 455.707 129.648 434.203 113.776 406.384C97.904 378.565 89.968 345.712 89.968 307.824C89.968 280.176 94.576 254.917 103.792 232.048C113.179 209.008 126.32 189.125 143.216 172.4C160.283 155.675 180.336 142.789 203.376 133.744C226.587 124.528 251.931 119.92 279.408 119.92C309.275 119.92 334.363 123.675 354.672 131.184C374.981 138.693 393.328 149.36 409.712 163.184L367.216 233.072C357.317 222.832 345.371 215.237 331.376 210.288C317.381 205.168 301.936 202.608 285.04 202.608C268.315 202.608 253.381 205.083 240.24 210.032C227.269 214.811 216.176 221.723 206.96 230.768C197.915 239.813 191.003 250.736 186.224 263.536C181.445 276.336 179.056 290.672 179.056 306.544C179.056 328.389 183.323 347.077 191.856 362.608C200.56 378.139 212.933 390.085 228.976 398.448C245.019 406.64 264.219 410.736 286.576 410.736C302.619 410.736 318.491 408.347 334.192 403.568C350.064 398.619 365.083 390.683 379.248 379.76L418.16 451.184C401.605 463.984 381.808 474.309 358.768 482.16C335.728 489.84 308.848 493.68 278.128 493.68Z" fill="white"/>
<path d="M338.816 610V241.36H422.784V407.248L405.376 386.512C416.64 372.688 430.037 361.68 445.568 353.488C461.099 345.296 478.251 341.2 497.024 341.2C521.429 341.2 541.739 346.064 557.952 355.792C574.336 365.52 586.539 378.235 594.56 393.936C602.581 409.637 606.592 426.533 606.592 444.624V610H522.624V468.176C522.624 453.157 518.272 440.955 509.568 431.568C500.864 422.181 488.661 417.403 472.96 417.232C462.379 417.061 453.333 419.195 445.824 423.632C438.485 427.899 432.768 434.128 428.672 442.32C424.747 450.341 422.784 459.899 422.784 470.992V610H338.816Z" fill="white"/>
<path d="M690 685H632.604V660H665V61H49V660H331.551V685H24V36H690V685Z" fill="white"/>
</g>
<defs>
<clipPath id="clip0_810_8">
<rect width="720" height="720" fill="white"/>
</clipPath>
</defs>
</svg>
